<svg width="320" height="180" viewBox="0 0 320 180" fill="none" xmlns="http://www.w3.org/2000/svg">
<path d="M175.809 36.2559C180.529 37.6193 186.834 40.3369 184.817 46.3205C183.952 48.8869 182.161 51.0574 180.621 53.2424C180.439 53.5015 177.404 58.731 178.549 58.7514C177.834 58.7387 178.086 56.0763 178.163 55.7504C178.502 54.322 179.328 53.0019 180.121 51.788C181.641 49.4596 184.668 45.9816 183.662 42.9286C182.928 40.7029 179.934 39.2084 177.917 38.4247C176.37 37.8236 174.744 37.4129 173.119 37.0793C172.531 36.9587 169.915 36.8937 169.569 36.347C169.424 36.1181 172.489 36.0109 172.691 36.0151C173.734 36.0373 174.774 36.1227 175.809 36.2559Z" fill="#121111"/>
<path d="M189.255 35.6323C192.059 33.2722 195.008 31.0616 198.232 29.3041C199.767 28.4681 201.362 27.7274 203.029 27.199C203.321 27.1069 206.429 26.5704 206.457 26.5018C206.4 26.6389 205.212 26.961 205.058 27.0232C204.022 27.4419 202.995 27.8902 201.972 28.3402C199.658 29.3576 197.45 30.5677 195.397 32.0456C194.166 32.9323 192.889 33.7616 191.689 34.6918C190.593 35.5412 189.559 36.4662 188.507 37.3683C188.005 37.7989 187.245 38.7313 186.58 38.868C186.636 38.8564 187.693 37.3876 187.793 37.2734C188.274 36.7211 188.762 36.1754 189.255 35.6323Z" fill="#121111"/>
<path d="M190.851 39.9909C192.961 39.2295 195.064 38.3952 197.31 38.1357C198.38 38.012 202.088 37.8671 202.674 39.2224C202.539 38.9099 200.038 38.8614 199.68 38.8424C198.035 38.7545 196.526 39.034 194.968 39.5202C194.184 39.7645 188.649 41.3979 188.649 41.3958C188.638 41.059 190.57 40.165 190.851 39.9909Z" fill="#121111"/>
<path d="M192.632 44.0103C194.794 44.222 196.961 44.4132 199.112 44.7233C200.081 44.8632 201.057 45.0088 202.008 45.2461C202.057 45.258 203.034 45.6177 203.075 45.5962C202.221 46.0487 190.355 44.3517 190.35 44.3647C190.451 44.0771 192.299 44.0543 192.632 44.0103Z" fill="#121111"/>
<path d="M159.79 13.6993C163.361 18.2566 163.426 23.9467 164.806 29.3288C165.216 30.9291 166.146 34.8022 168.398 34.8342C170.55 34.8648 167.083 30.51 166.657 29.643C165.451 27.1891 165.071 24.3309 164.405 21.7041C163.749 19.1162 162.76 16.7228 161.274 14.4981C158.92 10.9726 155.708 8.64246 151.461 7.97555C151.663 13.6856 149.369 19.5265 151.312 25.0924C153.267 30.6925 156.956 34.6152 161.74 37.9427C162.443 38.4314 163.508 39.3525 164.423 39.2179C165.434 39.0695 165.006 38.5587 164.412 38.0299C162.496 36.3245 159.896 35.4319 157.937 33.6843C155.598 31.5984 153.888 28.9976 152.666 26.1214C151.27 22.8336 151.21 19.7047 151.678 16.2049C151.936 14.2745 152.264 12.3476 152.315 10.3964C152.322 10.1468 152.207 9.07172 152.385 8.96168C153.095 8.52258 155.68 10.112 156.262 10.4727C157.63 11.3214 158.793 12.4425 159.79 13.6993Z" fill="#121111"/>
<path d="M175.03 27.682C176.527 23.8215 177.798 19.6907 177.819 15.5152C177.828 13.6062 177.52 11.7116 176.865 9.91582C176.68 9.40676 175.886 6.88359 175.438 6.67969C177.18 7.47246 178.417 10.4987 178.802 12.1651C179.462 15.0195 179.216 18.1195 178.719 20.9816C178.393 22.8544 177.6 24.6614 176.972 26.4512C176.914 26.6161 174.563 32.7804 174.209 32.4847C173.764 32.1145 174.91 28.3229 175.03 27.682Z" fill="#121111"/>
<path d="M168.485 27.855C167.953 23.831 167.603 19.6689 168.246 15.6368C168.533 13.84 169.009 11.9855 170.032 10.4555C170.498 9.75832 171.066 9.10969 171.797 8.68043C171.93 8.60238 173.365 8.06555 173.347 8.22059C173.338 8.30848 171.673 9.75023 171.514 10.0005C170.816 11.0992 170.344 12.4028 170.013 13.6547C169.35 16.1554 169.391 18.6543 169.502 21.2108C169.574 22.8878 169.484 24.5278 169.687 26.2055C169.724 26.5127 170.648 32.0643 170.386 32.0741C169.704 32.0998 168.7 28.478 168.485 27.855Z" fill="#121111"/>
<path d="M158.787 44.7321C156.542 46.3792 157.633 51.4519 154.868 52.483C154.86 52.4862 155.53 48.8166 155.596 48.536C155.86 47.4012 155.951 46.3802 156.551 45.379C157.038 44.5637 157.731 43.4225 158.696 43.1058C160.605 42.48 159.049 43.9109 158.787 44.7321Z" fill="#121111"/>
<path d="M162.573 50.3691C161.861 51.0265 161.57 51.9972 160.923 52.6936C160.435 53.2185 160.263 53.5838 160.244 52.6982C160.237 52.3589 162.127 48.7083 162.777 49.4757C162.86 49.5728 162.625 50.2724 162.573 50.3691Z" fill="#121111"/>
<path d="M168.561 51.6224C167.349 52.6335 165.642 54.4736 164.139 55.0058C164.062 55.0329 164.584 53.9139 164.671 53.8024C165.145 53.1875 165.943 52.5389 166.563 52.0615C166.951 51.7623 168.817 50.1813 169.037 50.3845C169.198 50.5336 168.66 51.4276 168.561 51.6224Z" fill="#121111"/>
<path d="M172.792 53.1394C171.978 53.988 169.246 56.2693 167.913 55.8886C167.96 55.9019 170.503 53.8165 170.837 53.5901C171.198 53.3447 172.898 51.763 173.037 51.8361C173.259 51.9529 172.87 52.9393 172.792 53.1394Z" fill="#121111"/>
<path d="M180.504 60.8119C180.045 64.3148 181.776 65.9039 183.759 68.4278C185.519 70.6672 186.758 73.209 187.997 75.7621C189.318 78.4842 190.588 81.2299 191.652 84.0646C192.036 85.0904 192.18 86.9386 192.801 87.7549C193.712 88.9499 193.524 86.9991 193.364 86.3497C192.104 81.2517 189.281 76.8016 187.349 71.9807C186.384 69.5707 184.93 67.6846 183.593 65.4813C182.962 64.4421 182.516 63.3973 182.101 62.2617C181.922 61.7716 180.795 58.8857 180.504 60.8119Z" fill="#121111"/>
<path d="M143.198 50.0639C137.837 47.0124 131.05 42.397 129.047 36.1909C128.002 32.9495 126.57 29.6371 126.014 26.2758C125.753 24.699 125.614 23.0755 125.683 21.477C125.716 20.7232 125.785 19.9617 125.961 19.2266C125.991 19.0979 126.625 17.6228 126.618 17.6091C126.726 17.8105 126.337 19.1341 126.327 19.3989C126.293 20.3495 126.408 21.3163 126.528 22.2571C126.786 24.2821 127.163 26.3289 127.742 28.2885C128.33 30.2748 129.313 32.0984 129.888 34.1009C130.494 36.212 131.222 37.9997 132.668 39.6823C134.973 42.3643 137.808 44.8819 140.725 46.8777C142.549 48.1258 144.488 49.2142 146.494 50.1398C147.023 50.3838 151.159 52.1986 151.304 52.0309C150.782 52.6335 147.959 51.686 147.333 51.5197C145.914 51.1436 144.551 50.624 143.198 50.0639Z" fill="#121111"/>
<path d="M127.644 14.0425C128.179 13.128 130.96 8.69414 129.329 7.86059C128.316 8.63262 127.221 9.64512 126.261 10.5943C126.089 10.7638 123.702 13.4483 123.662 13.4329C122.844 13.1062 130.343 2.0359 131.095 8.59254C131.277 10.1774 130.3 11.6895 129.604 13.0373C129.445 13.3443 127.27 17.8453 126.689 17.6407C126.296 17.4839 127.505 14.471 127.644 14.0425Z" fill="#121111"/>
<path d="M125.516 6.55137C125.622 5.16305 126.036 2.08477 124.365 1.31871C123.566 0.952734 122.888 1.39078 122.258 1.90477C121.688 2.36988 120.963 3.84785 120.291 4.05844C120.373 4.03277 120.613 2.54953 120.677 2.39801C121.021 1.57887 121.649 0.820547 122.429 0.381094C123.974 -0.489375 125.609 0.209883 126.439 1.69102C126.955 2.61352 126.988 9.42152 126.193 9.29391C125.838 9.2366 125.583 6.85195 125.516 6.55137Z" fill="#121111"/>
<path d="M117.233 6.74754C114.98 8.36016 114.578 11.8438 114.934 14.3638C115.112 15.6196 115.487 16.8841 116.203 17.9445C116.242 18.0018 117.421 19.4147 117.437 19.3978C117.237 19.6052 115.763 18.6093 115.624 18.4922C114.8 17.7982 114.333 16.7963 114.033 15.7852C113.532 14.097 113.414 12.1834 113.682 10.4418C113.893 9.07559 114.629 7.71399 115.526 6.66352C116.101 5.98992 118.786 3.83871 119.794 5.09555C119.626 4.88461 117.528 6.36082 117.233 6.74754Z" fill="#121111"/>
<path d="M148.816 67.6666C144.072 68.67 140.104 65.8737 136.808 62.8977C133.186 59.6275 129.682 56.2155 126.362 52.6387C123.544 49.603 121.87 46.5803 120.676 42.5834C119.318 38.0391 118.481 33.3323 117.836 28.6393C117.652 27.2999 116.066 19.7321 117.319 19.4801C118.161 19.3106 119.177 29.0257 119.289 29.7172C120.052 34.386 121.124 38.9552 122.36 43.5175C123.556 47.932 126.265 50.5702 129.6 53.5412C132.908 56.488 136.026 59.6106 139.699 62.1253C141.741 63.5231 143.854 64.5817 146.158 65.4585C146.948 65.7594 148.687 65.9921 149.271 66.4762C149.89 66.9892 149.766 67.3833 148.816 67.6666Z" fill="#121111"/>
<path d="M177.632 80.6077C176.634 85.0208 176.795 89.7507 177.099 94.2342C177.244 96.3731 177.435 98.5254 177.81 100.638C177.843 100.825 178.698 104.275 178.939 104.115C177.775 104.885 176.188 98.1893 176.142 97.8817C175.731 95.0913 175.562 92.2644 175.412 89.4498C175.298 87.3049 175.534 85.2391 175.804 83.1118C175.996 81.6029 176.2 80.0708 176.691 78.6248C176.928 77.9266 177.21 77.1451 177.69 76.5735C177.715 76.5432 178.865 75.3708 178.899 75.7909C178.969 76.1945 178.016 77.689 177.902 78.2005C177.728 78.9884 177.66 79.8033 177.632 80.6077Z" fill="#121111"/>
<path d="M142.339 73.1081C139.468 80.0149 140.94 87.8963 139.752 95.1332C139.261 98.1288 138.674 101.163 137.866 104.09C137.492 105.446 137.036 106.781 136.532 108.094C136.014 109.446 135.117 110.773 134.704 112.146C134.754 112.087 134.801 112.025 134.846 111.962C134.2 112.657 133.776 114.118 133.17 114.951C132.435 115.96 131.582 116.861 130.46 117.44C135.809 117.761 137.269 110.168 138.409 106.337C139.809 101.63 140.757 96.8875 141.451 92.0296C142.167 87.0209 141.867 81.9636 142.529 76.9757C142.701 75.6773 142.975 74.3706 143.499 73.164C143.931 72.1684 144.689 71.4635 145.184 70.5371C145.657 69.6512 145.465 69.5936 144.598 70.1072C143.538 70.7347 142.793 72.0134 142.339 73.1081Z" fill="#121111"/>
<path d="M180.431 106.67C184.126 109.354 186.02 112.268 187.188 116.651C188.457 121.407 189.177 126.434 188.381 131.332C187.58 136.27 184.538 139.549 181.918 143.594C179.765 146.917 178.695 151.81 180.243 155.637C180.539 156.37 182.719 158.458 181.424 158.515C179.769 158.587 179.014 155.699 178.77 154.489C177.981 150.578 178.616 146.488 180.731 143.114C182.651 140.051 185.583 137.421 186.591 133.869C187.33 131.265 187.309 128.557 187.01 125.883C186.624 122.432 186.018 119.157 184.671 115.931C183.707 113.621 182.321 111.662 180.941 109.601C180.436 108.847 177.864 104.822 180.431 106.67Z" fill="#121111"/>
<path d="M167.234 119.308C168.43 120.907 169.609 122.648 170.053 124.625C170.186 125.215 170.444 128.869 169.051 128.772C169.293 128.789 169.183 126.264 169.164 126.075C169.041 124.867 168.591 123.905 168.014 122.85C167.666 122.216 165.038 118.421 165.247 118.249C165.515 118.028 166.93 119.108 167.234 119.308Z" fill="#121111"/>
<path d="M171.196 131.517C171.332 133.716 171.472 135.924 171.121 138.112C170.994 138.901 170.424 142.208 169.378 142.436C169.452 142.419 169.62 140.093 169.642 139.961C169.902 138.429 170.085 137.027 170.073 135.474C170.066 134.692 169.812 129.285 170.152 129.278C170.49 129.271 171.096 131.263 171.196 131.517Z" fill="#121111"/>
<path d="M172.011 150.28C172.098 153.137 172.253 156.399 173.545 159.006C174.73 161.396 176.967 162.921 179.276 164.11C181.69 165.352 184.257 166.263 186.681 167.482C187.655 167.972 188.617 168.505 189.496 169.154C189.662 169.276 191.359 170.912 191.305 170.926C191.194 170.953 189.96 170.059 189.817 169.985C189.169 169.649 188.486 169.37 187.811 169.094C186.176 168.424 184.514 167.819 182.875 167.158C179.219 165.681 175.148 164.094 172.768 160.765C171.384 158.829 171.122 156.252 170.873 153.944C170.67 152.071 170.548 150.187 170.554 148.303C170.556 147.449 170.23 144.126 171.018 143.616C171.103 143.561 171.507 146.731 171.538 146.985C171.671 148.087 171.826 149.186 172.011 150.28Z" fill="#121111"/>
<path d="M192.861 168.136C193.023 168.937 193.339 170.083 192.469 170.626C192.281 170.743 191.649 170.985 191.476 170.734C191.283 170.456 191.712 170.481 191.749 170.198C191.786 169.912 192.031 169.583 192.068 169.239C192.093 169.006 192.011 168.763 192.027 168.53C192.066 167.964 192.16 167.218 192.861 168.136Z" fill="#121111"/>
<path d="M194.685 164.994C195.528 165.667 196.298 166.657 195.641 167.741C195.141 168.566 194.759 168.681 194.726 167.868C194.711 167.494 195.056 167.19 194.98 166.787C194.912 166.424 194.487 166.1 194.294 165.831C193.839 165.195 193.411 164.834 194.685 164.994Z" fill="#121111"/>
<path d="M197.355 163.448C197.834 164.312 198.356 165.447 197.554 166.305C197.394 166.476 196.829 166.955 196.558 166.774C196.261 166.576 196.776 166.153 196.868 165.847C197.151 164.908 195.714 162.542 197.355 163.448Z" fill="#121111"/>
<path d="M183.976 157.108C185.768 158.42 188.154 158.899 190.256 159.47C191.178 159.721 195.244 160.368 195.592 161.513C195.618 161.599 191.462 161.15 191.252 161.102C189.593 160.722 187.739 160.532 186.168 159.878C184.833 159.321 182.882 158.485 182.07 157.248C181.863 156.934 181.294 155.934 181.909 155.813C181.942 155.807 183.657 157.028 183.976 157.108Z" fill="#121111"/>
<path d="M165.688 117.953C162.647 123.237 161.317 129.755 159.971 135.642C158.732 141.055 156.165 146.016 154.957 151.407C154.408 153.854 153.51 156.625 153.672 159.147C153.851 161.929 155.869 163.417 158.22 164.509C160.962 165.784 163.842 166.739 166.509 168.18C167.831 168.895 169.164 169.688 170.209 170.784C170.408 170.993 171.861 172.859 171.416 173.008C171.231 173.091 169.752 171.502 169.541 171.336C168.524 170.536 167.396 169.901 166.239 169.329C163.628 168.036 160.851 167.136 158.202 165.931C156.198 165.019 154.111 163.828 153.106 161.768C151.863 159.222 152.724 156.291 153.259 153.679C154.261 148.781 156.022 144.218 157.3 139.399C157.938 136.992 158.285 134.519 158.909 132.108C159.643 129.272 160.589 126.495 161.364 123.671C161.992 121.383 162.043 118.087 163.986 116.455C164.474 116.046 166.403 114.689 166.83 115.668C167.049 116.169 165.884 117.612 165.688 117.953Z" fill="#121111"/>
<path d="M168.146 174.383C168.521 174.801 169.288 175.429 169.109 176.093C168.857 177.033 168.624 176.382 168.238 175.934C167.886 175.526 166.763 174.17 168.146 174.383Z" fill="#121111"/>
<path d="M166.353 177.538C166.341 178.195 166.619 179.238 165.945 179.685C164.785 180.455 165.211 179.612 165.225 179.284C165.246 178.809 165.487 176.103 166.353 177.538Z" fill="#121111"/>
<path d="M141.188 120.69C141.293 123.816 141.635 126.937 141.399 130.067C141.29 131.501 141.082 132.945 140.613 134.31C140.541 134.52 139.626 136.582 139.509 136.472C139.395 136.365 139.768 134.542 139.789 134.361C139.978 132.673 140.259 131.003 140.297 129.301C140.333 127.675 140.102 126.072 140.126 124.452C140.144 123.176 140.053 121.914 139.995 120.64C139.966 119.99 139.659 118.246 140.086 117.717C140.425 117.297 140.204 117.305 140.495 117.802C140.922 118.535 140.959 119.846 141.188 120.69Z" fill="#121111"/>
<path d="M143.119 136.362C142.522 138.482 142.011 140.629 141.262 142.703C140.913 143.673 140.525 144.657 139.985 145.539C139.956 145.584 139.097 146.727 139.075 146.654C138.85 145.87 142.505 133.815 142.844 133.902C143.184 133.989 143.103 135.972 143.119 136.362Z" fill="#121111"/>
<path d="M143.683 151.924C143.284 155.828 142.326 160.068 143.02 163.986C143.564 167.063 146.119 168.253 148.477 169.948C151.597 172.191 154.759 174.403 158.065 176.367C159.244 177.068 160.444 177.746 161.688 178.327C162.107 178.523 164.652 179.788 164.909 179.526C164.244 180.204 160.497 178.649 159.766 178.358C157.564 177.484 155.513 176.287 153.523 175.014C151.422 173.67 149.368 172.253 147.322 170.827C145.468 169.534 143.119 168.388 142.101 166.275C140.582 163.12 141.468 159.131 141.844 155.809C142.108 153.478 142.381 151.143 142.498 148.799C142.522 148.304 142.721 143.327 142.426 143.235C143.3 143.536 143.447 146.977 143.512 147.645C143.651 149.067 143.677 150.496 143.683 151.924Z" fill="#121111"/>
<path d="M183.145 82.4358C184.5 84.7034 185.431 87.2575 186.117 89.8003C186.447 91.0255 186.717 92.2693 186.893 93.5265C186.974 94.107 187.407 96.0272 187.038 96.5398C187.169 96.3569 186.057 93.8176 185.995 93.5884C185.482 91.6857 185.092 89.7775 184.357 87.9402C183.892 86.7772 183.529 85.5503 182.993 84.42C182.603 83.6005 182.127 82.8105 181.613 82.0635C181.337 81.6637 180.581 81.0063 180.573 80.4976C180.571 80.3732 182.863 82.1345 183.145 82.4358Z" fill="#121111"/>
<path d="M194.888 91.6893C195.463 95.0941 196.323 98.081 194.753 101.316C194.052 102.762 193.131 104.223 191.899 105.277C191.323 105.77 190.627 106.286 189.849 106.363C189.784 106.369 188.499 106.172 188.629 106.067C188.611 106.082 189.659 106.032 189.602 106.049C189.987 105.936 190.335 105.615 190.631 105.362C191.456 104.658 192.147 103.706 192.738 102.804C193.758 101.245 194.73 99.3491 194.579 97.4507C194.466 96.0177 194.298 94.5608 194.053 93.1433C193.872 92.1016 192.798 89.2804 193.341 88.2288C193.305 88.2977 194.708 91.2157 194.888 91.6893Z" fill="#121111"/>
<path d="M186.326 104.212C184.927 103.178 184.497 101.144 185.625 99.7404C186.384 98.7964 188.417 98.0251 189.475 98.9803C189.413 98.9241 187.669 99.5505 187.454 99.655C186.66 100.039 186.253 100.478 186.156 101.387C186.108 101.836 186.19 102.425 186.424 102.812C186.599 103.101 188.302 103.906 188.224 104.213C188.123 104.606 186.619 104.293 186.326 104.212Z" fill="#121111"/>
<path d="M190.06 96.2473C189.204 97.7207 191.436 97.2211 191.738 97.6486C192.31 98.4572 190.433 98.6175 189.739 98.2459C188.881 97.7867 188.458 96.551 189.126 95.6897C189.93 94.6526 189.88 95.645 190.06 96.2473Z" fill="#121111"/>
<path d="M180.478 44.0423C181.584 43.9886 183.085 43.4162 184.028 44.3018C185.259 45.4584 183.716 44.9655 183.04 44.935C182.116 44.8928 178.549 45.7137 180.478 44.0423Z" fill="#121111"/>
<path d="M139.234 115.004C138.261 115.9 137.088 120.062 134.946 118.622C135.22 118.806 136.552 117.856 136.726 117.677C137.222 117.171 137.355 116.511 137.687 115.916C137.883 115.566 138.16 115.191 138.42 114.89C138.366 114.953 139.998 113.455 140.015 114.096C140.02 114.252 139.345 114.75 139.234 115.004Z" fill="#121111"/>
<path d="M172.152 46.6288C169.65 46.6154 169.021 43.3041 171.817 43.1135C174.544 42.9275 174.094 45.8571 172.152 46.6288Z" fill="#121111"/>
<path d="M158.195 79.0506C158.535 80.2593 159.27 81.3463 159.877 82.4295C160.099 82.8267 161.307 84.5241 161.068 85.0799C160.97 85.3084 159.376 83.263 159.29 83.1312C158.772 82.3352 158.231 81.6012 157.86 80.7388C157.629 80.2041 156.706 78.3798 157.301 77.9238C157.656 77.6521 157.913 78.7475 158.195 79.0506Z" fill="#121111"/>
<path d="M164.982 84.8359C165.538 85.8351 167.673 88.6296 167.13 89.8527C167.151 89.807 163.066 84.6549 163.889 84.1686C164.069 84.0628 164.796 84.7108 164.982 84.8359Z" fill="#121111"/>
<path d="M169.791 88.2928C169.662 89.0926 169.588 92.784 168.939 90.0235C168.78 89.35 169.228 86.4749 169.791 88.2928Z" fill="#121111"/>
<path d="M173.62 80.6477C173.516 82.0579 173.787 85.8502 171.609 86.1363C172.253 86.0516 172.572 82.6734 172.61 82.0287C172.631 81.674 172.555 79.7147 172.934 79.5322C173.43 79.2939 173.433 80.216 173.62 80.6477Z" fill="#121111"/>
<path d="M151.151 17.673C150.326 15.2747 151.077 12.4748 151.369 10.0438C151.534 8.66777 151.551 8.13199 153.076 8.28457C154.154 8.3925 155.224 9.00809 156.106 9.59484C157.748 10.6875 159.54 12.2716 160.257 14.1655C161.15 16.5217 158.986 15.9652 157.555 15.1443C158.015 17.8049 154.46 18.618 154.268 15.7834C153.347 16.3768 152.368 17.7223 151.151 17.673Z" fill="#121111"/>
<path d="M168.652 14.8096C167.61 13.5425 169.42 11.1857 170.188 10.26C171.278 8.9441 173.225 7.04566 175.131 7.37754C178.839 8.02371 178.68 15.8706 177.267 18.283C175.826 17.3021 174.376 14.0945 172.852 16.958C172.587 14.8852 171.576 15.943 170.537 16.8093C170.229 17.0659 169.402 17.9019 168.907 17.7166C168.591 17.5985 168.636 15.2972 168.652 14.8096Z" fill="#121111"/>
</svg>
